# xmcd CD database file
#
# Track frame offsets:
#	150
#	19994
#	33247
#	68698
#	87802
#	106525
#	135687
#	166506
#	186564
#	208595
#	228561
#	245999
#
# Disc length: 3641 seconds
#
# Revision: 1
# Processed by: cddbd v1.5.2PL0 Copyright (c) Steve Scherf et al.
# Submitted via: CDex 1.51
#
DISCID=9c0e370c
DTITLE=GARY MOORE - Parisienne Walkways - The Blues Collection
DYEAR=2003
DGENRE=Blues
TTITLE0=Oh Pretty Woman(Feat. Albert King)
TTITLE1=Walking By Myself
TTITLE2=Need Your Love So Bad
TTITLE3=Merry Go Round
TTITLE4=Showbiz Blues
TTITLE5=Love That Burns
TTITLE6=Parisienne Walkways(Live)
TTITLE7=That Kind Of Woman
TTITLE8=The Sky Is Crying
TTITLE9=Cold Day In Hell
TTITLE10=Only Fool In Town
TTITLE11=King Of The Blues(Live)
EXTD=YEAR: 2003
EXTT0=
EXTT1=
EXTT2=
EXTT3=
EXTT4=
EXTT5=
EXTT6=
EXTT7=
EXTT8=
EXTT9=
EXTT10=
EXTT11=
PLAYORDER=
